<svg xmlns="http://www.w3.org/2000/svg" width="24" height="24" fill="none" viewBox="0 0 24 24"><path stroke="currentColor" stroke-linecap="round" stroke-linejoin="round" stroke-width="2" d="M21.44 11.05L12.25 20.24C11.1237 21.3662 9.5978 21.9983 8.00502 21.9983C6.41225 21.9983 4.88632 21.3662 3.76002 20.24C2.63373 19.1137 2.00171 17.5878 2.00171 15.995C2.00171 14.4022 2.63373 12.8763 3.76002 11.75L12.95 2.56C13.7006 1.80943 14.7186 1.38775 15.78 1.38775C16.8415 1.38775 17.8595 1.80943 18.61 2.56C19.3606 3.31056 19.7823 4.32856 19.7823 5.39C19.7823 6.45144 19.3606 7.46943 18.61 8.22L9.41002 17.41C9.03473 17.7853 8.52575 17.9961 7.99502 17.9961C7.4643 17.9961 6.95532 17.7853 6.58002 17.41C6.20473 17.0347 5.99389 16.5257 5.99389 15.995C5.99389 15.4643 6.20473 14.9553 6.58002 14.58L15.07 6.1"/></svg>